<svg width="170.667" height="170.667" viewBox="0 0 170.667 170.667" xmlns="http://www.w3.org/2000/svg" xmlns:xlink="http://www.w3.org/1999/xlink" id="svg2" xml:space="preserve" overflow="hidden"><style>
.MsftOfcThm_Text2_Fill_v2 {
 fill:#005677; 
}
</style>
<defs id="defs6"><clipPath id="clipPath18"><path d="M0 128 128 128 128 0 0 0Z" id="path16"/></clipPath></defs><g id="g10" transform="matrix(1.33333 0 0 -1.33333 0 170.667)"><g id="g12"><g id="g14" clip-path="url(#clipPath18)"><g id="g20" transform="translate(63.941 108.727)"><path d="M0 0C0 0-0.001 0-0.001 0-11.704-0.049-23.272-4.924-31.451-13.277-58.811-41.465-39.402-88.332-0.001-88.454 1.324-88.421 1.285-86.465-0.001-86.454-5.467-86.402-10.908-85.287-15.92-83.16-36.77-74.543-46.93-49.714-37.972-28.999-31.816-14.001-16.203-3.714-0.003-4-0.002-4-0.002-4-0.002-4 22.456-4 40.726-22.27 40.726-44.727 40.726-60.851 31.194-75.481 16.441-81.999 15.431-82.446 14.974-83.627 15.42-84.637 15.75-85.385 16.483-85.83 17.25-85.83 17.521-85.83 17.795-85.774 18.058-85.659 34.258-78.5 44.726-62.434 44.726-44.727 44.726-20.065 24.662-0.001 0 0" id="path22" class="MsftOfcThm_Text2_Fill_v2" stroke="none" stroke-width="1" stroke-linecap="butt" stroke-linejoin="miter" stroke-miterlimit="4" fill="#005677" fill-rule="nonzero" fill-opacity="1"/></g><g id="g24" transform="translate(81.3865 82.918)"><path d="M0 0-33.134-33.591-39.291-18.587C-39.767-17.438-41.525-18.053-41.178-19.249L-35.72-37.811C-35.623-38.138-35.436-38.451-35.165-38.698-34.357-39.437-33.092-39.354-32.381-38.524-32.381-38.524 1.452-1.376 1.452-1.376 2.327-0.413 0.88 0.897 0 0" id="path26" class="MsftOfcThm_Text2_Fill_v2" stroke="none" stroke-width="1" stroke-linecap="butt" stroke-linejoin="miter" stroke-miterlimit="4" fill="#005677" fill-rule="nonzero" fill-opacity="1"/></g></g></g></g></svg>
